<svg xmlns="http://www.w3.org/2000/svg" viewBox="0 0 68.24 70.89"><defs><style>.cls-1{fill:#58595b;}</style></defs><title>Asset 3</title><g id="Layer_2" data-name="Layer 2"><g id="Icons"><g id="Bag"><path class="cls-1" d="M29.75,4.44c4.09,0,7.55,3.2,8.57,7.55h4.52C41.7,5.18,36.27,0,29.75,0s-12,5.18-13.09,12h4.52C22.2,7.64,25.66,4.44,29.75,4.44Z"/><path class="cls-1" d="M65.66,37.35a4.29,4.29,0,0,0-4.24-4.18H36.54a4.29,4.29,0,0,0-4.24,4.14l-3.15,29v.23a4.26,4.26,0,0,0,4.25,4.26H64a4.26,4.26,0,0,0,4.25-4.27v-.1ZM64.33,66.65a.37.37,0,0,1-.33.26H33.38a.36.36,0,0,1-.32-.23l0-.06v-.07l3.14-28.89v-.23a.37.37,0,0,1,.35-.36H61.42a.37.37,0,0,1,.35.38v.1l2.58,29.05Z"/><path class="cls-1" d="M49.53,47.61c-2.65,0-4.89-2.87-5.55-6.77H41c.74,6.11,4.26,10.75,8.48,10.75S57.27,46.95,58,40.84H55.08C54.42,44.73,52.18,47.61,49.53,47.61Z"/><path class="cls-1" d="M4.17,65.35,9,21.09v-.24a1.49,1.49,0,0,1,1.47-1.46H49a1.49,1.49,0,0,1,1.47,1.47V21l.81,9h4.18l-.83-9.2A5.67,5.67,0,0,0,49,15.23H10.52a5.67,5.67,0,0,0-5.63,5.5L0,65v.24a5.64,5.64,0,0,0,5.64,5.63h20.5V66.72H5.64A1.49,1.49,0,0,1,4.17,65.35Z"/></g></g></g></svg>