<svg xmlns="http://www.w3.org/2000/svg" viewBox="0 0 58.32 70.2"><defs><style>.cls-1{fill:#58595b;}</style></defs><title>Asset 2</title><g id="Layer_2" data-name="Layer 2"><g id="Icons"><g id="Document_Validate"><path class="cls-1" d="M56.4,0H1.92A1.92,1.92,0,0,0,0,1.92V68.28A1.92,1.92,0,0,0,1.92,70.2H56.4a1.92,1.92,0,0,0,1.92-1.92V1.92A1.92,1.92,0,0,0,56.4,0ZM54.48,66.36H3.84V3.84H54.48Z"/><path class="cls-1" d="M10.8,32.54H23.6a1.92,1.92,0,0,0,1.92-1.92V24.54L21.68,27.9v.8h-9V18.46H18.8l4.32-3.84H10.8a1.92,1.92,0,0,0-1.92,1.92V30.62A1.92,1.92,0,0,0,10.8,32.54Z"/><path class="cls-1" d="M17.15,21.5A1.92,1.92,0,1,0,15,24.7l2.88,1.92a1.92,1.92,0,0,0,2.34-.16l8.64-7.68a1.92,1.92,0,1,0-2.55-2.87L18.8,22.6Z"/><path class="cls-1" d="M33,23.1H49a1.92,1.92,0,0,0,0-3.84H33a1.92,1.92,0,0,0,0,3.84Z"/><path class="cls-1" d="M33,29.5h8a1.92,1.92,0,1,0,0-3.84H33a1.92,1.92,0,0,0,0,3.84Z"/><path class="cls-1" d="M21.88,51.9h-9V41.66H19l4.32-3.84H11a1.92,1.92,0,0,0-1.92,1.92V53.82A1.92,1.92,0,0,0,11,55.74H23.8a1.92,1.92,0,0,0,1.92-1.92V47.74L21.88,51.1Z"/><path class="cls-1" d="M26.53,39.1,19,45.8l-1.65-1.1a1.92,1.92,0,0,0-2.13,3.2l2.88,1.92a1.92,1.92,0,0,0,2.34-.16L29.08,42a1.92,1.92,0,1,0-2.55-2.87Z"/><path class="cls-1" d="M49.24,42.46h-16a1.92,1.92,0,1,0,0,3.84h16a1.92,1.92,0,1,0,0-3.84Z"/><path class="cls-1" d="M41.24,48.86h-8a1.92,1.92,0,1,0,0,3.84h8a1.92,1.92,0,1,0,0-3.84Z"/></g></g></g></svg>