<svg xmlns="http://www.w3.org/2000/svg" viewBox="0 0 86.31 72.73"><defs><style>.cls-1{fill:#58595b;}</style></defs><title>Asset 1</title><g id="Layer_2" data-name="Layer 2"><g id="Icons"><g id="Home"><path class="cls-1" d="M85.53,29.94s-22-16-22-16.14v-12a1.85,1.85,0,0,0-3.7,0v9.61L45.15.85a3.7,3.7,0,0,0-4.39,0L.78,29.66a1.85,1.85,0,1,0,2.14,3l8.89-6.31V69a3.7,3.7,0,0,0,3.7,3.7H70.44a3.7,3.7,0,0,0,3.7-3.7V26.41L83.39,33a1.85,1.85,0,0,0,2.14-3ZM51.66,69H35.15V39.14H51.66Zm18.78,0H55.37V39.14a3.7,3.7,0,0,0-3.7-3.7H35.15a3.7,3.7,0,0,0-3.7,3.7V69H15.51V24.34L43,3.84,67.41,21.57a1.85,1.85,0,0,0,.32.29l2.71,1.92Z"/><circle class="cls-1" cx="39.57" cy="54.37" r="2.13"/></g></g></g></svg>